<svg width="80" height="62" viewBox="0 0 80 62" fill="none" xmlns="http://www.w3.org/2000/svg">
<rect x="1" y="1" width="78" height="60" fill="#2C2E30"/>
<rect x="1" y="1" width="78" height="60" stroke="#E8ECEB" stroke-width="2"/>
<rect width="72" height="54" transform="translate(4 4)" fill="#0095DA"/>
<path d="M32.32 17.8182V44H25.212V24.3636H25.0586L19.3313 27.7898V21.7557L25.7745 17.8182H32.32ZM49.0991 44.7159C46.7212 44.7074 44.6673 44.1577 42.9371 43.0668C41.207 41.9759 39.8732 40.4034 38.9357 38.3494C37.9982 36.2955 37.5337 33.8324 37.5423 30.9602C37.5508 28.0795 38.0195 25.6335 38.9485 23.6222C39.886 21.6108 41.2156 20.081 42.9371 19.0327C44.6673 17.9844 46.7212 17.4602 49.0991 17.4602C51.4769 17.4602 53.5309 17.9886 55.261 19.0455C56.9911 20.0937 58.3249 21.6236 59.2624 23.6349C60.1999 25.6463 60.6644 28.0881 60.6559 30.9602C60.6559 33.8494 60.1871 36.321 59.2496 38.375C58.3121 40.429 56.9783 42.0014 55.2482 43.0923C53.5266 44.1747 51.4769 44.7159 49.0991 44.7159ZM49.0991 38.9375C50.3263 38.9375 51.332 38.2983 52.1161 37.0199C52.9087 35.733 53.3008 33.7131 53.2923 30.9602C53.2923 29.1619 53.1133 27.6918 52.7553 26.5497C52.3974 25.4077 51.9031 24.5639 51.2724 24.0185C50.6417 23.4645 49.9173 23.1875 49.0991 23.1875C47.8718 23.1875 46.8704 23.8097 46.0948 25.054C45.3192 26.2983 44.9229 28.267 44.9059 30.9602C44.8974 32.7926 45.0721 34.3011 45.43 35.4858C45.788 36.6619 46.2823 37.5312 46.913 38.0938C47.5522 38.6562 48.2809 38.9375 49.0991 38.9375Z" fill="#E8ECEB"/>
</svg>
