<svg xmlns="http://www.w3.org/2000/svg" width="2000" height="2000" viewBox="0 0 1500 1500"><path fill="#fca311" d="M677.563 241.922c-58.461 2.82-116.41 18.207-171.793 45.258-54.102 26.539-89.489 51.539-128.977 90.898-22.176 22.18-38.074 41.024-51.664 61.664-14.488 21.926-14.23 22.567 3.203 6.156 8.719-8.207 19.746-18.078 24.488-21.925 29.871-24.485 68.59-44.102 109.871-55.895 25.13-7.18 43.336-10.258 66.157-11.285 27.945-1.023 63.46 2.309 63.46 6.027 0 1.54 3.333 1.282-25.64 2.563-28.977 1.285-48.336 4.36-73.719 11.539C435 393.46 390 418.078 347.82 456.152c-55.511 50.13-92.18 128.977-104.488 224.618-2.05 15.77-2.05 72.308 0 90.382 8.461 75.13 30.129 139.36 68.59 203.207 54.871 91.024 141.539 163.844 245.387 205.77 43.718 17.82 101.921 32.434 140.129 35.512 20.64 1.539 68.59.511 94.23-2.18 104.484-11.024 197.95-49.23 275-112.563 15.254-12.566 51.281-49.105 63.59-64.359 54.613-68.207 87.18-146.281 101.152-241.922 2.692-18.719 4.23-39.617 5.77-77.308.77-17.692 1.793-35.516 2.437-39.746 6.664-43.844 21.793-75.512 56.535-117.946 32.051-39.234 45.641-61.414 54.36-88.847 6.41-20.387 7.82-30.899 7.691-59.872 0-28.847-.894-35.77-8.203-64.746-5.383-20.894-16.281-50-18.848-50-.64 0-1.793 4.746-2.691 10.387-2.309 14.36-9.102 32.691-16.024 43.078-7.949 11.922-22.695 25.766-42.566 40.125-9.101 6.54-20.64 15.258-25.64 19.36-27.563 22.566-40.641 44.617-45.512 76.539-1.797 11.41-3.336 12.82-5.77 4.617-2.949-9.617-12.18-26.41-20.387-36.926-17.69-22.691-31.535-32.691-76.792-55.64-16.797-8.462-35.512-18.72-41.668-22.82-19.872-13.204-34.872-30.642-42.692-49.614-2.18-5.13-4.36-9.746-4.87-10.258-1.669-1.668-3.977 9.617-5.513 28.078-2.566 30.512 1.793 69.742 10.641 97.05 5.254 16.153 14.613 35.384 25 51.153 11.281 17.18 34.871 40.77 63.973 64.102 35.129 28.078 47.18 41.668 58.207 65.387 8.715 18.718 10.77 29.87 10.894 58.718 0 20.512-.512 27.82-2.82 41.024-8.719 48.46-26.41 85.386-55.254 115.77-11.54 12.05-22.05 20-39.875 29.87l-13.332 7.567-25.129.77c-59.102 2.05-88.59 11.41-187.691 60.128-67.18 33.074-112.309 48.074-157.692 52.692-23.207 2.308-57.82.894-77.05-3.207-42.438-8.973-77.692-26.922-104.231-53.075-15.258-15-31.926-37.308-35.258-47.054-1.027-3.075-1.027-3.075 10.512 12.18 36.539 48.335 88.848 75.128 156.539 80.128 24.871 1.922 66.797-4.87 98.976-15.898 34.614-11.793 58.844-23.973 118.461-59.102 61.54-36.41 104.872-52.82 147.95-56.281 22.304-1.797 50.64.77 65 5.898 4.613 1.54-5.258-7.437-15.645-14.359-30.383-20.258-63.074-28.59-106.41-27.18-25.125.899-42.05 3.844-90.383 16.153-37.95 9.617-48.972 11.926-67.95 14.36-15.382 2.05-50.253 1.921-62.82-.13-13.202-2.18-37.05-9.484-46.538-14.36-38.075-19.1-65.895-51.534-78.844-92.05-5.64-17.82-7.18-30.254-6.285-55 .898-27.82 6.156-51.023 16.027-70.64 5-10.13 8.719-13.59 6.668-6.41-.64 2.179-2.438 11.921-3.977 21.538-2.308 15-2.691 20.64-2.05 39.871.77 25.387 2.308 33.72 10.64 58.977 6.797 20.64 14.23 34.36 28.078 51.793 14.871 18.59 32.95 33.59 52.563 43.59 9.746 4.87 27.566 11.668 28.336 10.77.254-.259-3.078-3.204-7.438-6.794-15.383-12.18-22.562-26.539-23.718-46.668-1.793-31.41 11.41-66.922 33.976-91.027 10.64-11.539 17.05-15.129 28.715-16.281 10.258-.899 17.695.77 36.285 8.078 22.305 8.719 33.715 11.281 49.36 11.281 12.05.13 14.101-.258 19.87-3.332 14.36-7.566 18.59-15.64 19.614-36.668l.64-14.617 6.797-2.945c11.024-4.875 15.13-15.387 10-25.387-1.797-3.332-1.797-4.102-.386-4.613 1.027-.258 3.718-2.438 6.027-4.746 5-5 5.383-10.13 1.41-19.102-3.719-8.207-2.308-10.77 9.102-16.797 11.539-6.023 14.746-10.383 14.746-19.742-.13-7.82-1.285-10.64-11.41-28.078-15.258-26.024-17.82-38.844-12.309-61.024 1.54-6.41 3.203-16.41 3.719-22.437l.77-10.895 9.613-.644 9.617-.64.383-4.36c.64-5.766-7.95-35.383-14.23-49.485-15-33.59-37.052-58.336-69.872-78.718-38.078-23.461-80.64-36.282-132.437-39.871-17.692-1.157-24.485-1.282-41.54-.387m207.566 92.308c9.613 9.872 21.152 33.079 25.898 51.922 2.692 10.899 2.051 12.567-4.488 12.567h-5l-.898-7.438c-2.563-21.664-8.72-39.742-18.461-54.101-6.282-9.23-4.617-10.77 2.949-2.95m-51.156 171.797 5.515 6.153 35.895.383c32.18.386 36.027.64 37.82 2.566 3.207 3.59 11.156 19.36 11.156 22.18 0 5.64-3.847 10-12.18 14.101-4.741 2.309-9.616 5.512-11.027 7.309-3.203 4.101-3.074 10.511.258 17.05 1.41 2.95 2.309 5.512 1.922 5.899-.254.383-4.36 1.023-9.102 1.664-6.668.77-10.128 2.18-16.539 6.285-4.359 2.946-11.152 6.281-14.87 7.563-3.848 1.28-6.41 2.691-5.641 3.078 3.332 1.922 10.77 2.05 16.41.383 9.742-2.95 14.488-2.563 18.847 1.797 4.743 4.742 4.872 10.125.512 14.23-3.59 3.46-11.539 3.844-19.101 1.152-2.567-.898-4.875-1.41-5.13-1.027-.386.387 1.024 6.668 3.075 13.848 2.18 7.308 3.848 15.386 3.848 18.078 0 12.949-8.848 24.742-19.743 26.281-25.64 3.848-90.257-22.95-127.308-52.82-15-12.051-28.719-26.668-36.922-39.23-3.59-5.259-6.797-9.747-7.309-9.747-1.152-.125.13 9.617 2.82 19.746 3.079 11.54 16.669 40.13 23.72 50 3.074 4.23 8.718 10.77 12.69 14.614l7.052 7.054-6.793 7.692c-21.668 25-33.336 49.101-36.668 75.77-.77 6.28-1.668 11.663-1.922 11.921-1.156 1.152-8.848-5.64-15.899-13.848-21.28-24.742-31.027-47.18-36.152-83.203-3.078-21.668 1.023-58.719 8.844-80.898 8.46-23.461 23.719-47.82 40.258-64.102l5.511-5.386 60.13.128c57.948.258 60.257.13 65.382-2.433 2.95-1.41 7.05-4.23 9.106-6.41 2.05-2.055 4.23-3.848 4.87-3.848.641 0 3.59 2.691 6.665 6.027M429.488 841.281c6.41 26.157 18.719 52.438 34.23 72.95 24.102 32.05 55.13 56.667 91.41 72.308 35 15.254 67.95 21.41 114.743 21.54 28.848.124 46.027-1.669 73.977-7.567 13.59-2.82 52.945-14.102 60.254-17.18 8.207-3.46 82.566-30.64 100.128-36.539 39.872-13.715 70.77-19.356 97.051-18.203 23.207 1.152 34.871 5 44.102 14.488 10.387 10.64 9.234 29.23-3.074 49.871-5.641 9.489-27.051 31.922-40.387 42.309-51.793 40.383-119.613 65.512-192.305 71.152-30.129 2.438-73.976-1.668-104.488-9.742-6.668-1.797-12.692-3.719-13.336-4.36-.895-.898 9.36-1.28 28.207-1.28 34.742-.13 47.309-1.157 75.258-6.54 35.125-6.668 67.304-18.976 85.894-32.566 15-11.152 18.207-24.23 7.051-28.973-7.05-2.949-32.691-2.05-63.203 2.434-65.512 9.617-67.309 9.746-113.46 9.746-35 .129-45.9-.258-58.977-2.18-57.563-8.332-108.075-28.847-146.793-59.617-38.72-30.77-68.207-75.894-80.13-122.82-2.562-10.13-3.59-28.973-1.41-26.793.641.77 3.079 8.59 5.258 17.562m0 0"/><path fill="#fca311" d="M729.742 527.691c.258 1.797 2.051 2.692 6.797 3.461 10 1.54 34.488 7.18 39.871 9.106 2.82.894 7.05 2.05 9.617 2.562 4.614.77 4.871.64 8.075-5 2.18-4.101 2.691-6.027 1.668-6.41-3.977-1.281-32.82-4.36-48.72-5.129-16.792-.898-17.82-.77-17.308 1.41m144.106 11.282c-5.899 13.207 4.742 20.129 20.125 13.078 3.718-1.668 7.82-3.461 9.23-4.102 2.055-.898 1.54-1.156-2.82-1.539-3.59-.258-7.051.512-10.512 2.18-6.023 3.203-6.41 3.203-9.742.64-1.668-1.28-2.692-3.972-3.207-8.59l-.77-6.667ZM724.36 542.05c0 1.798 5 4.49 21.667 11.669l21.664 9.36 4.618-3.59c2.562-2.052 4.613-4.106 4.613-4.489s-2.18-1.41-4.742-2.309c-10.64-3.332-44.617-12.949-46.153-12.949-.898 0-1.668 1.028-1.668 2.309m0 0"/></svg>